<?xml version="1.0" encoding="UTF-8" standalone="no"?>
<svg xmlns="http://www.w3.org/2000/svg" viewBox="0 0 64 64" width="64" height="64">
  <circle cx="32" cy="32" r="30" fill="#e53935"/>
  <path d="M32,2C15.4,2,2,15.4,2,32s13.4,30,30,30s30-13.4,30-30S48.6,2,32,2z M32,56c-13.3,0-24-10.7-24-24S18.7,8,32,8 s24,10.7,24,24S45.3,56,32,56z" fill="#c62828"/>
  <path d="M32,8c-13.3,0-24,10.7-24,24s10.7,24,24,24s24-10.7,24-24S45.3,8,32,8z M32,50c-9.9,0-18-8.1-18-18s8.1-18,18-18 s18,8.1,18,18S41.9,50,32,50z" fill="#d32f2f"/>
  <path d="M26,20c0,0-4-8-14-8c0,0,6,4,6,10L26,20z" fill="#4caf50"/>
  <path d="M38,20c0,0,4-8,14-8c0,0-6,4-6,10L38,20z" fill="#4caf50"/>
</svg>
